<svg width="1440" height="1024" viewBox="0 0 1440 1024" fill="none" xmlns="http://www.w3.org/2000/svg">
<g clip-path="url(#clip0_1_2)">
<rect width="1440" height="1024" fill="white"/>
<g clip-path="url(#clip1_1_2)">
<path d="M0 83L21.8 72.7C43.7 62.3 87.3 41.7 131 43.3C174.7 45 218.3 69 262 67.3C305.7 65.7 349.3 38.3 393 28.2C436.7 18 480.3 25 524 30.2C567.7 35.3 611.3 38.7 654.8 43.7C698.3 48.7 741.7 55.3 785.2 60.5C828.7 65.7 872.3 69.3 916 66C959.7 62.7 1003.3 52.3 1047 47.2C1090.7 42 1134.3 42 1178 42C1221.7 42 1265.3 42 1309 47.2C1352.7 52.3 1396.3 62.7 1418.2 67.8L1440 73V0H1418.2C1396.3 0 1352.7 0 1309 0C1265.3 0 1221.7 0 1178 0C1134.3 0 1090.7 0 1047 0C1003.3 0 959.7 0 916 0C872.3 0 828.7 0 785.2 0C741.7 0 698.3 0 654.8 0C611.3 0 567.7 0 524 0C480.3 0 436.7 0 393 0C349.3 0 305.7 0 262 0C218.3 0 174.7 0 131 0C87.3 0 43.7 0 21.8 0H0V83Z" fill="#6198FF"/>
<path d="M0 277L21.8 272C43.7 267 87.3 257 131 255.3C174.7 253.7 218.3 260.3 262 280.8C305.7 301.3 349.3 335.7 393 337.3C436.7 339 480.3 308 524 294.3C567.7 280.7 611.3 284.3 654.8 299.8C698.3 315.3 741.7 342.7 785.2 344.3C828.7 346 872.3 322 916 315.2C959.7 308.3 1003.3 318.7 1047 311.8C1090.7 305 1134.3 281 1178 289.5C1221.7 298 1265.3 339 1309 316.8C1352.7 294.7 1396.3 209.3 1418.2 166.7L1440 124V71L1418.2 65.8C1396.3 60.7 1352.7 50.3 1309 45.2C1265.3 40 1221.7 40 1178 40C1134.3 40 1090.7 40 1047 45.2C1003.3 50.3 959.7 60.7 916 64C872.3 67.3 828.7 63.7 785.2 58.5C741.7 53.3 698.3 46.7 654.8 41.7C611.3 36.7 567.7 33.3 524 28.2C480.3 23 436.7 16 393 26.2C349.3 36.3 305.7 63.7 262 65.3C218.3 67 174.7 43 131 41.3C87.3 39.7 43.7 60.3 21.8 70.7L0 81V277Z" fill="#4F8CFF"/>
<path d="M0 318L21.8 311.2C43.7 304.3 87.3 290.7 131 301C174.7 311.3 218.3 345.7 262 386.7C305.7 427.7 349.3 475.3 393 482.2C436.7 489 480.3 455 524 432.8C567.7 410.7 611.3 400.3 654.8 415.7C698.3 431 741.7 472 785.2 477.2C828.7 482.3 872.3 451.7 916 429.5C959.7 407.3 1003.3 393.7 1047 393.7C1090.7 393.7 1134.3 407.3 1178 412.5C1221.7 417.7 1265.3 414.3 1309 378.5C1352.7 342.7 1396.3 274.3 1418.2 240.2L1440 206V122L1418.2 164.7C1396.3 207.3 1352.7 292.7 1309 314.8C1265.3 337 1221.7 296 1178 287.5C1134.3 279 1090.7 303 1047 309.8C1003.3 316.7 959.7 306.3 916 313.2C872.3 320 828.7 344 785.2 342.3C741.7 340.7 698.3 313.3 654.8 297.8C611.3 282.3 567.7 278.7 524 292.3C480.3 306 436.7 337 393 335.3C349.3 333.7 305.7 299.3 262 278.8C218.3 258.3 174.7 251.7 131 253.3C87.3 255 43.7 265 21.8 270L0 275V318Z" fill="#3C80FF"/>
<path d="M0 400L21.8 383C43.7 366 87.3 332 131 342.3C174.7 352.7 218.3 407.3 262 453.3C305.7 499.3 349.3 536.7 393 533.2C436.7 529.7 480.3 485.3 524 458.2C567.7 431 611.3 421 654.8 439.8C698.3 458.7 741.7 506.3 785.2 523.3C828.7 540.3 872.3 526.7 916 516.5C959.7 506.3 1003.3 499.7 1047 492.8C1090.7 486 1134.3 479 1178 479C1221.7 479 1265.3 486 1309 451.8C1352.7 417.7 1396.3 342.3 1418.2 304.7L1440 267V204L1418.2 238.2C1396.3 272.3 1352.7 340.7 1309 376.5C1265.3 412.3 1221.7 415.7 1178 410.5C1134.3 405.3 1090.7 391.7 1047 391.7C1003.3 391.7 959.7 405.3 916 427.5C872.3 449.7 828.7 480.3 785.2 475.2C741.7 470 698.3 429 654.8 413.7C611.3 398.3 567.7 408.7 524 430.8C480.3 453 436.7 487 393 480.2C349.3 473.3 305.7 425.7 262 384.7C218.3 343.7 174.7 309.3 131 299C87.3 288.7 43.7 302.3 21.8 309.2L0 316V400Z" fill="#2573FF"/>
<path d="M0 574L21.8 562.2C43.7 550.3 87.3 526.7 131 537C174.7 547.3 218.3 591.7 262 625.8C305.7 660 349.3 684 393 670.3C436.7 656.7 480.3 605.3 524 562.7C567.7 520 611.3 486 654.8 509.8C698.3 533.7 741.7 615.3 785.2 644.3C828.7 673.3 872.3 649.7 916 634.3C959.7 619 1003.3 612 1047 603.3C1090.7 594.7 1134.3 584.3 1178 598C1221.7 611.7 1265.3 649.3 1309 634C1352.7 618.7 1396.3 550.3 1418.2 516.2L1440 482V265L1418.2 302.7C1396.3 340.3 1352.7 415.7 1309 449.8C1265.3 484 1221.7 477 1178 477C1134.3 477 1090.7 484 1047 490.8C1003.3 497.7 959.7 504.3 916 514.5C872.3 524.7 828.7 538.3 785.2 521.3C741.7 504.3 698.3 456.7 654.8 437.8C611.3 419 567.7 429 524 456.2C480.3 483.3 436.7 527.7 393 531.2C349.3 534.7 305.7 497.3 262 451.3C218.3 405.3 174.7 350.7 131 340.3C87.3 330 43.7 364 21.8 381L0 398V574Z" fill="#0066FF"/>
<path d="M0 851L21.8 840.7C43.7 830.3 87.3 809.7 131 801.2C174.7 792.7 218.3 796.3 262 805C305.7 813.7 349.3 827.3 393 822.2C436.7 817 480.3 793 524 777.7C567.7 762.3 611.3 755.7 654.8 765.8C698.3 776 741.7 803 785.2 794.3C828.7 785.7 872.3 741.3 916 743.2C959.7 745 1003.3 793 1047 801.7C1090.7 810.3 1134.3 779.7 1178 781.3C1221.7 783 1265.3 817 1309 825.5C1352.7 834 1396.3 817 1418.2 808.5L1440 800V480L1418.2 514.2C1396.3 548.3 1352.7 616.7 1309 632C1265.3 647.3 1221.7 609.7 1178 596C1134.3 582.3 1090.7 592.7 1047 601.3C1003.3 610 959.7 617 916 632.3C872.3 647.7 828.7 671.3 785.2 642.3C741.7 613.3 698.3 531.7 654.8 507.8C611.3 484 567.7 518 524 560.7C480.3 603.3 436.7 654.7 393 668.3C349.3 682 305.7 658 262 623.8C218.3 589.7 174.7 545.3 131 535C87.3 524.7 43.7 548.3 21.8 560.2L0 572V851Z" fill="#005FEE"/>
<path d="M0 933L21.8 917.7C43.7 902.3 87.3 871.7 131 878.5C174.7 885.3 218.3 929.7 262 938.2C305.7 946.7 349.3 919.3 393 898.8C436.7 878.3 480.3 864.7 524 876.7C567.7 888.7 611.3 926.3 654.8 943.3C698.3 960.3 741.7 956.7 785.2 936.2C828.7 915.7 872.3 878.3 916 869.8C959.7 861.3 1003.3 881.7 1047 895.3C1090.7 909 1134.3 916 1178 917.7C1221.7 919.3 1265.3 915.7 1309 907C1352.7 898.3 1396.3 884.7 1418.2 877.8L1440 871V798L1418.2 806.5C1396.3 815 1352.7 832 1309 823.5C1265.3 815 1221.7 781 1178 779.3C1134.3 777.7 1090.7 808.3 1047 799.7C1003.3 791 959.7 743 916 741.2C872.3 739.3 828.7 783.7 785.2 792.3C741.7 801 698.3 774 654.8 763.8C611.3 753.7 567.7 760.3 524 775.7C480.3 791 436.7 815 393 820.2C349.3 825.3 305.7 811.7 262 803C218.3 794.3 174.7 790.7 131 799.2C87.3 807.7 43.7 828.3 21.8 838.7L0 849V933Z" fill="#0059DD"/>
<path d="M0 964L21.8 965.7C43.7 967.3 87.3 970.7 131 975.7C174.7 980.7 218.3 987.3 262 983.8C305.7 980.3 349.3 966.7 393 963.3C436.7 960 480.3 967 524 972.2C567.7 977.3 611.3 980.7 654.8 985.8C698.3 991 741.7 998 785.2 989.5C828.7 981 872.3 957 916 946.7C959.7 936.3 1003.3 939.7 1047 948.2C1090.7 956.7 1134.3 970.3 1178 975.5C1221.7 980.7 1265.3 977.3 1309 980.8C1352.7 984.3 1396.3 994.7 1418.2 999.8L1440 1005V869L1418.2 875.8C1396.3 882.7 1352.7 896.3 1309 905C1265.3 913.7 1221.7 917.3 1178 915.7C1134.3 914 1090.7 907 1047 893.3C1003.3 879.7 959.7 859.3 916 867.8C872.3 876.3 828.7 913.7 785.2 934.2C741.7 954.7 698.3 958.3 654.8 941.3C611.3 924.3 567.7 886.7 524 874.7C480.3 862.7 436.7 876.3 393 896.8C349.3 917.3 305.7 944.7 262 936.2C218.3 927.7 174.7 883.3 131 876.5C87.3 869.7 43.7 900.3 21.8 915.7L0 931V964Z" fill="#0052CC"/>
<path d="M0 1025H21.8C43.7 1025 87.3 1025 131 1025C174.7 1025 218.3 1025 262 1025C305.7 1025 349.3 1025 393 1025C436.7 1025 480.3 1025 524 1025C567.7 1025 611.3 1025 654.8 1025C698.3 1025 741.7 1025 785.2 1025C828.7 1025 872.3 1025 916 1025C959.7 1025 1003.3 1025 1047 1025C1090.7 1025 1134.3 1025 1178 1025C1221.7 1025 1265.3 1025 1309 1025C1352.7 1025 1396.3 1025 1418.2 1025H1440V1003L1418.2 997.8C1396.3 992.7 1352.7 982.3 1309 978.8C1265.3 975.3 1221.7 978.7 1178 973.5C1134.3 968.3 1090.7 954.7 1047 946.2C1003.3 937.7 959.7 934.3 916 944.7C872.3 955 828.7 979 785.2 987.5C741.7 996 698.3 989 654.8 983.8C611.3 978.7 567.7 975.3 524 970.2C480.3 965 436.7 958 393 961.3C349.3 964.7 305.7 978.3 262 981.8C218.3 985.3 174.7 978.7 131 973.7C87.3 968.7 43.7 965.3 21.8 963.7L0 962V1025Z" fill="#004CBB"/>
<path fill-rule="evenodd" clip-rule="evenodd" d="M92 188V200C92 227.614 114.386 250 142 250H303C330.614 250 353 227.614 353 200V188H92Z" fill="#D9D9D9"/>
<circle cx="137.5" cy="188.5" r="45.5" fill="white"/>
<circle cx="182.5" cy="158.5" r="45.5" fill="white"/>
<circle cx="222.5" cy="188.5" r="45.5" fill="white"/>
<path d="M300 167.5C300 192.629 279.629 213 254.5 213C229.371 213 209 192.629 209 167.5C209 142.371 229.371 122 254.5 122C279.629 122 300 142.371 300 167.5Z" fill="white"/>
<circle cx="307.5" cy="188.5" r="45.5" fill="white"/>
<path fill-rule="evenodd" clip-rule="evenodd" d="M411 351V363C411 390.614 433.386 413 461 413H622C649.614 413 672 390.614 672 363V351H411Z" fill="#D9D9D9"/>
<circle cx="456.5" cy="351.5" r="45.5" fill="white"/>
<circle cx="501.5" cy="321.5" r="45.5" fill="white"/>
<circle cx="541.5" cy="351.5" r="45.5" fill="white"/>
<path d="M619 330.5C619 355.629 598.629 376 573.5 376C548.371 376 528 355.629 528 330.5C528 305.371 548.371 285 573.5 285C598.629 285 619 305.371 619 330.5Z" fill="white"/>
<circle cx="626.5" cy="351.5" r="45.5" fill="white"/>
<path fill-rule="evenodd" clip-rule="evenodd" d="M830 302V314C830 341.614 852.386 364 880 364H1041C1068.61 364 1091 341.614 1091 314V302H830Z" fill="#D9D9D9"/>
<circle cx="875.5" cy="302.5" r="45.5" fill="white"/>
<circle cx="920.5" cy="272.5" r="45.5" fill="white"/>
<circle cx="960.5" cy="302.5" r="45.5" fill="white"/>
<path d="M1038 281.5C1038 306.629 1017.63 327 992.5 327C967.371 327 947 306.629 947 281.5C947 256.371 967.371 236 992.5 236C1017.63 236 1038 256.371 1038 281.5Z" fill="white"/>
<circle cx="1045.5" cy="302.5" r="45.5" fill="white"/>
<path fill-rule="evenodd" clip-rule="evenodd" d="M493 116V128C493 155.614 515.386 178 543 178H776.533C804.147 178 826.533 155.614 826.533 128V116H493Z" fill="#D9D9D9"/>
<ellipse cx="551.274" cy="116.5" rx="58.2736" ry="45.5" fill="white"/>
<ellipse cx="609.073" cy="86.5" rx="58.2736" ry="45.5" fill="white"/>
<ellipse cx="659.767" cy="116.5" rx="58.7473" ry="45.5" fill="white"/>
<path d="M758.31 95.5C758.31 120.629 732.221 141 700.037 141C667.853 141 641.763 120.629 641.763 95.5C641.763 70.371 667.853 50 700.037 50C732.221 50 758.31 70.371 758.31 95.5Z" fill="white"/>
<ellipse cx="768.26" cy="116.5" rx="58.2736" ry="45.5" fill="white"/>
<path fill-rule="evenodd" clip-rule="evenodd" d="M1323.21 161V173C1323.21 200.614 1300.82 223 1273.21 223H1088C1060.39 223 1038 200.614 1038 173V161H1323.21Z" fill="#D9D9D9"/>
<ellipse cx="49.7203" cy="45.5" rx="49.7203" ry="45.5" transform="matrix(-1 0 0 1 1323.21 116)" fill="white"/>
<ellipse cx="49.7203" cy="45.5" rx="49.7203" ry="45.5" transform="matrix(-1 0 0 1 1274.03 86)" fill="white"/>
<ellipse cx="49.7203" cy="45.5" rx="49.7203" ry="45.5" transform="matrix(-1 0 0 1 1230.32 116)" fill="white"/>
<path d="M1095.92 140.5C1095.92 165.629 1118.18 186 1145.64 186C1173.1 186 1195.36 165.629 1195.36 140.5C1195.36 115.371 1173.1 95 1145.64 95C1118.18 95 1095.92 115.371 1095.92 140.5Z" fill="white"/>
<ellipse cx="49.7203" cy="45.5" rx="49.7203" ry="45.5" transform="matrix(-1 0 0 1 1137.44 116)" fill="white"/>
</g>
</g>
<defs>
<clipPath id="clip0_1_2">
<rect width="1440" height="1024" fill="white"/>
</clipPath>
<clipPath id="clip1_1_2">
<rect width="1440" height="1024" fill="white"/>
</clipPath>
</defs>
</svg>
