<svg width="1440" height="83" viewBox="0 0 1440 83" fill="none" xmlns="http://www.w3.org/2000/svg">
<path d="M0 83L21.8 72.7C43.7 62.3 87.3 41.7 131 43.3C174.7 45 218.3 69 262 67.3C305.7 65.7 349.3 38.3 393 28.2C436.7 18 480.3 25 524 30.2C567.7 35.3 611.3 38.7 654.8 43.7C698.3 48.7 741.7 55.3 785.2 60.5C828.7 65.7 872.3 69.3 916 66C959.7 62.7 1003.3 52.3 1047 47.2C1090.7 42 1134.3 42 1178 42C1221.7 42 1265.3 42 1309 47.2C1352.7 52.3 1396.3 62.7 1418.2 67.8L1440 73V0H1418.2C1396.3 0 1352.7 0 1309 0C1265.3 0 1221.7 0 1178 0C1134.3 0 1090.7 0 1047 0C1003.3 0 959.7 0 916 0C872.3 0 828.7 0 785.2 0C741.7 0 698.3 0 654.8 0C611.3 0 567.7 0 524 0C480.3 0 436.7 0 393 0C349.3 0 305.7 0 262 0C218.3 0 174.7 0 131 0C87.3 0 43.7 0 21.8 0H0V83Z" fill="#6198FF"/>
</svg>
