<svg width="1440" height="330" viewBox="0 0 1440 330" fill="none" xmlns="http://www.w3.org/2000/svg">
<path d="M0 196L21.8 179C43.7 162 87.3 128 131 138.3C174.7 148.7 218.3 203.3 262 249.3C305.7 295.3 349.3 332.7 393 329.2C436.7 325.7 480.3 281.3 524 254.2C567.7 227 611.3 217 654.8 235.8C698.3 254.7 741.7 302.3 785.2 319.3C828.7 336.3 872.3 322.7 916 312.5C959.7 302.3 1003.3 295.7 1047 288.8C1090.7 282 1134.3 275 1178 275C1221.7 275 1265.3 282 1309 247.8C1352.7 213.7 1396.3 138.3 1418.2 100.7L1440 63V0L1418.2 34.2C1396.3 68.3 1352.7 136.7 1309 172.5C1265.3 208.3 1221.7 211.7 1178 206.5C1134.3 201.3 1090.7 187.7 1047 187.7C1003.3 187.7 959.7 201.3 916 223.5C872.3 245.7 828.7 276.3 785.2 271.2C741.7 266 698.3 225 654.8 209.7C611.3 194.3 567.7 204.7 524 226.8C480.3 249 436.7 283 393 276.2C349.3 269.3 305.7 221.7 262 180.7C218.3 139.7 174.7 105.3 131 95C87.3 84.7 43.7 98.3 21.8 105.2L0 112V196Z" fill="#2573FF"/>
</svg>
