<svg width="1440" height="410" viewBox="0 0 1440 410" fill="none" xmlns="http://www.w3.org/2000/svg">
<path d="M0 309L21.8 297.2C43.7 285.3 87.3 261.7 131 272C174.7 282.3 218.3 326.7 262 360.8C305.7 395 349.3 419 393 405.3C436.7 391.7 480.3 340.3 524 297.7C567.7 255 611.3 221 654.8 244.8C698.3 268.7 741.7 350.3 785.2 379.3C828.7 408.3 872.3 384.7 916 369.3C959.7 354 1003.3 347 1047 338.3C1090.7 329.7 1134.3 319.3 1178 333C1221.7 346.7 1265.3 384.3 1309 369C1352.7 353.7 1396.3 285.3 1418.2 251.2L1440 217V0L1418.2 37.7C1396.3 75.3 1352.7 150.7 1309 184.8C1265.3 219 1221.7 212 1178 212C1134.3 212 1090.7 219 1047 225.8C1003.3 232.7 959.7 239.3 916 249.5C872.3 259.7 828.7 273.3 785.2 256.3C741.7 239.3 698.3 191.7 654.8 172.8C611.3 154 567.7 164 524 191.2C480.3 218.3 436.7 262.7 393 266.2C349.3 269.7 305.7 232.3 262 186.3C218.3 140.3 174.7 85.7 131 75.3C87.3 65 43.7 99 21.8 116L0 133V309Z" fill="#0066FF"/>
</svg>
