<svg width="1440" height="214" viewBox="0 0 1440 214" fill="none" xmlns="http://www.w3.org/2000/svg">
<path d="M0 192L21.8 176.7C43.7 161.3 87.3 130.7 131 137.5C174.7 144.3 218.3 188.7 262 197.2C305.7 205.7 349.3 178.3 393 157.8C436.7 137.3 480.3 123.7 524 135.7C567.7 147.7 611.3 185.3 654.8 202.3C698.3 219.3 741.7 215.7 785.2 195.2C828.7 174.7 872.3 137.3 916 128.8C959.7 120.3 1003.3 140.7 1047 154.3C1090.7 168 1134.3 175 1178 176.7C1221.7 178.3 1265.3 174.7 1309 166C1352.7 157.3 1396.3 143.7 1418.2 136.8L1440 130V57L1418.2 65.5C1396.3 74 1352.7 91 1309 82.5C1265.3 74 1221.7 40 1178 38.3C1134.3 36.7 1090.7 67.3 1047 58.7C1003.3 50 959.7 2.00001 916 0.200015C872.3 -1.69999 828.7 42.7 785.2 51.3C741.7 60 698.3 33 654.8 22.8C611.3 12.7 567.7 19.3 524 34.7C480.3 50 436.7 74 393 79.2C349.3 84.3 305.7 70.7 262 62C218.3 53.3 174.7 49.7 131 58.2C87.3 66.7 43.7 87.3 21.8 97.7L0 108V192Z" fill="#0059DD"/>
</svg>
