<svg width="1440" height="362" viewBox="0 0 1440 362" fill="none" xmlns="http://www.w3.org/2000/svg">
<path d="M0 196L21.8 189.2C43.7 182.3 87.3 168.7 131 179C174.7 189.3 218.3 223.7 262 264.7C305.7 305.7 349.3 353.3 393 360.2C436.7 367 480.3 333 524 310.8C567.7 288.7 611.3 278.3 654.8 293.7C698.3 309 741.7 350 785.2 355.2C828.7 360.3 872.3 329.7 916 307.5C959.7 285.3 1003.3 271.7 1047 271.7C1090.7 271.7 1134.3 285.3 1178 290.5C1221.7 295.7 1265.3 292.3 1309 256.5C1352.7 220.7 1396.3 152.3 1418.2 118.2L1440 84V0L1418.2 42.7C1396.3 85.3 1352.7 170.7 1309 192.8C1265.3 215 1221.7 174 1178 165.5C1134.3 157 1090.7 181 1047 187.8C1003.3 194.7 959.7 184.3 916 191.2C872.3 198 828.7 222 785.2 220.3C741.7 218.7 698.3 191.3 654.8 175.8C611.3 160.3 567.7 156.7 524 170.3C480.3 184 436.7 215 393 213.3C349.3 211.7 305.7 177.3 262 156.8C218.3 136.3 174.7 129.7 131 131.3C87.3 133 43.7 143 21.8 148L0 153V196Z" fill="#3C80FF"/>
</svg>
