<svg width="1440" height="86" viewBox="0 0 1440 86" fill="none" xmlns="http://www.w3.org/2000/svg">
<path d="M0 87H21.8C43.7 87 87.3 87 131 87C174.7 87 218.3 87 262 87C305.7 87 349.3 87 393 87C436.7 87 480.3 87 524 87C567.7 87 611.3 87 654.8 87C698.3 87 741.7 87 785.2 87C828.7 87 872.3 87 916 87C959.7 87 1003.3 87 1047 87C1090.7 87 1134.3 87 1178 87C1221.7 87 1265.3 87 1309 87C1352.7 87 1396.3 87 1418.2 87H1440V65L1418.2 59.8C1396.3 54.7 1352.7 44.3 1309 40.8C1265.3 37.3 1221.7 40.7 1178 35.5C1134.3 30.3 1090.7 16.7 1047 8.19999C1003.3 -0.300005 959.7 -3.70001 916 6.69999C872.3 17 828.7 41 785.2 49.5C741.7 58 698.3 51 654.8 45.8C611.3 40.7 567.7 37.3 524 32.2C480.3 27 436.7 20 393 23.3C349.3 26.7 305.7 40.3 262 43.8C218.3 47.3 174.7 40.7 131 35.7C87.3 30.7 43.7 27.3 21.8 25.7L0 24V87Z" fill="#004CBB"/>
</svg>
