<svg width="1440" height="371" viewBox="0 0 1440 371" fill="none" xmlns="http://www.w3.org/2000/svg">
<path d="M0 371L21.8 360.7C43.7 350.3 87.3 329.7 131 321.2C174.7 312.7 218.3 316.3 262 325C305.7 333.7 349.3 347.3 393 342.2C436.7 337 480.3 313 524 297.7C567.7 282.3 611.3 275.7 654.8 285.8C698.3 296 741.7 323 785.2 314.3C828.7 305.7 872.3 261.3 916 263.2C959.7 265 1003.3 313 1047 321.7C1090.7 330.3 1134.3 299.7 1178 301.3C1221.7 303 1265.3 337 1309 345.5C1352.7 354 1396.3 337 1418.2 328.5L1440 320V0L1418.2 34.2C1396.3 68.3 1352.7 136.7 1309 152C1265.3 167.3 1221.7 129.7 1178 116C1134.3 102.3 1090.7 112.7 1047 121.3C1003.3 130 959.7 137 916 152.3C872.3 167.7 828.7 191.3 785.2 162.3C741.7 133.3 698.3 51.7 654.8 27.8C611.3 3.99999 567.7 38 524 80.7C480.3 123.3 436.7 174.7 393 188.3C349.3 202 305.7 178 262 143.8C218.3 109.7 174.7 65.3 131 55C87.3 44.7 43.7 68.3 21.8 80.2L0 92V371Z" fill="#005FEE"/>
</svg>
