<svg width="1440" height="325" viewBox="0 0 1440 325" fill="none" xmlns="http://www.w3.org/2000/svg">
<path d="M0 257L21.8 252C43.7 247 87.3 237 131 235.3C174.7 233.7 218.3 240.3 262 260.8C305.7 281.3 349.3 315.7 393 317.3C436.7 319 480.3 288 524 274.3C567.7 260.7 611.3 264.3 654.8 279.8C698.3 295.3 741.7 322.7 785.2 324.3C828.7 326 872.3 302 916 295.2C959.7 288.3 1003.3 298.7 1047 291.8C1090.7 285 1134.3 261 1178 269.5C1221.7 278 1265.3 319 1309 296.8C1352.7 274.7 1396.3 189.3 1418.2 146.7L1440 104V51L1418.2 45.8C1396.3 40.7 1352.7 30.3 1309 25.2C1265.3 20 1221.7 20 1178 20C1134.3 20 1090.7 20 1047 25.2C1003.3 30.3 959.7 40.7 916 44C872.3 47.3 828.7 43.7 785.2 38.5C741.7 33.3 698.3 26.7 654.8 21.7C611.3 16.7 567.7 13.3 524 8.20001C480.3 3.00001 436.7 -3.99999 393 6.20001C349.3 16.3 305.7 43.7 262 45.3C218.3 47 174.7 23 131 21.3C87.3 19.7 43.7 40.3 21.8 50.7L0 61V257Z" fill="#4F8CFF"/>
</svg>
